<svg xmlns="http://www.w3.org/2000/svg" width="79" height="26" fill="none" viewBox="0 0 79 26">
  <path fill="#18a0fb" d="M20.007 6.288c-.513-1.19-1.368-2.38-2.223-3.23-1.026-.849-2.052-1.699-3.25-2.208C13.168.34 11.8 0 10.432 0 8.89 0 7.695.34 6.327.85c-1.197.51-2.394 1.19-3.25 2.209-1.025.85-1.709 2.039-2.222 3.229A10.213 10.213 0 0 0 0 10.366V26h5.3v-5.268h10.09V26h5.3V10.366c.171-1.53-.17-2.889-.683-4.078Zm-4.617 9.176H5.3v-5.098c0-.68.172-1.36.343-2.04.342-.509.684-1.189 1.197-1.529.513-.51 1.026-.85 1.539-1.02.684-.17 1.368-.34 2.052-.34.684 0 1.368.17 2.052.34.513.17 1.026.51 1.539 1.02.513.51.855 1.02 1.026 1.53.342.68.342 1.36.342 2.039v5.098ZM49.931 4.928c-.341-1.02-1.025-1.87-1.71-2.549-.683-.68-1.71-1.36-2.564-1.7C44.63.17 43.605 0 42.407 0c-1.025 0-2.051.17-3.077.51-1.026.34-1.881 1.02-2.565 1.53C36.08 1.36 35.225.85 34.2.51 33.345.17 32.148 0 31.122 0c-1.197 0-2.223.17-3.249.68-1.026.34-1.881 1.02-2.565 1.7-.684.679-1.368 1.529-1.71 2.548-.513 1.02-.684 2.04-.684 3.229V26h5.3V7.647c.172-.68.514-1.36 1.027-1.7.513-.51 1.197-.679 1.88-.679.856 0 1.54.34 2.053.85.684.51 1.026 1.19 1.026 2.039V26h5.3V7.817c0-.68.343-1.36 1.027-1.87a2.84 2.84 0 0 1 2.052-.849 3.3 3.3 0 0 1 2.052.68c.513.51.855 1.19 1.026 1.87V25.83h5.3V8.157c-.342-1.19-.513-2.21-1.026-3.229Zm28.042 3.059c-.684-1.53-1.71-2.889-2.736-4.079-1.197-1.19-2.565-2.039-4.104-2.718C69.595.51 67.885.17 66.003.17c-1.88 0-3.42.34-5.13 1.02-1.538.68-3.077 1.699-4.103 2.718-1.197 1.19-2.052 2.55-2.736 4.079-.684 1.53-1.026 3.229-1.026 5.098 0 1.7.342 3.399 1.026 5.098.684 1.53 1.539 3.059 2.736 4.078 1.197 1.19 2.565 2.04 4.104 2.72 1.539.68 3.249 1.019 5.13 1.019 1.71 0 3.42-.34 5.13-1.02 1.538-.68 2.906-1.529 4.103-2.719 1.197-1.19 2.052-2.549 2.736-4.078.684-1.53 1.026-3.229 1.026-5.098 0-1.87-.342-3.569-1.026-5.098ZM68.91 20.222c-1.025.34-2.051.68-3.078.68-.683 0-1.367-.17-2.051-.34l-3.933 1.7h-.342c-.171-.17-.171-.17-.171-.34l.342-4.079c-.342-.51-.855-1.19-1.026-1.87-.342-.849-.513-1.868-.513-2.888 0-1.02.17-2.04.684-3.059.342-1.02 1.026-1.7 1.71-2.379.684-.68 1.539-1.36 2.394-1.7 1.026-.34 2.052-.679 3.078-.679 1.025 0 2.051.17 3.078.68.854.34 1.71 1.02 2.393 1.699.684.68 1.368 1.53 1.71 2.38.342.849.513 1.868.513 3.058 0 1.02-.17 2.04-.684 3.059-.342 1.02-1.026 1.7-1.71 2.379-.513.68-1.368 1.19-2.394 1.7.172 0 0 0 0 0Z"/>
</svg>
